<svg xmlns="http://www.w3.org/2000/svg" width="42" height="26" viewBox="0 0 42 26">
    <g fill="none" fill-rule="evenodd">
        <g>
            <g>
                <g>
                    <g transform="translate(-102 -215) translate(0 194) translate(45 21) translate(57)">
                        <rect width="42" height="26" fill="#0B0C0D" rx="2"/>
                        <path fill="#FFF" d="M26.455 4.348c4.817 0 8.735 3.88 8.735 8.652 0 4.77-3.918 8.651-8.735 8.651-3.909 0-7.225-2.555-8.337-6.068.14-.007.28-.018.42-.038l.156-.022.416-.09c1.03 3.042 3.93 5.243 7.345 5.243 4.273 0 7.75-3.444 7.75-7.676 0-.865-.151-1.693-.418-2.468-.074-.214-.155-.425-.247-.63-1.205-2.693-3.925-4.58-7.085-4.58-3.256 0-6.045 2.003-7.19 4.827h-1.048c1.193-3.372 4.43-5.801 8.238-5.801zm-10.91 0c1.698 0 3.28.49 4.622 1.324-.259.218-.504.45-.738.695-1.144-.66-2.468-1.044-3.884-1.044-4.274 0-7.75 3.444-7.75 7.677 0 .793.122 1.558.349 2.278.027.087.063.169.094.254 1.06 2.99 3.93 5.144 7.307 5.144 1.416 0 2.74-.384 3.884-1.044.234.244.479.477.738.695-1.343.834-2.924 1.324-4.622 1.324-4.816 0-8.734-3.88-8.734-8.651s3.918-8.652 8.734-8.652zm7.297 11.221l.95.208c-.32.932-.783 1.8-1.386 2.56-.263-.197-.524-.395-.755-.627.505-.64.908-1.363 1.19-2.141zm3.079-4.579l-.122.794c-.168-.056-.325-.123-.488-.16-.405-.096-.753.035-.983.378-.28.417-.356.883-.243 1.368.099.42.476.637.907.544.16-.035.315-.094.487-.146-.041.258-.078.51-.125.761-.007.036-.06.086-.097.09-.274.031-.554.096-.823.068-.614-.063-.993-.42-1.135-1.017-.148-.62-.09-1.23.175-1.809.446-.974 1.405-1.315 2.447-.87zm-5.445.509c.682.082 1.053.603.958 1.333-.067.52-.067.52-.595.52l-1.056.002c-.012 0-.023.006-.046.012-.045.297.08.496.363.576.31.087.612.034.911-.054.076-.022.152-.047.259-.08-.045.245-.083.472-.132.696-.007.034-.067.07-.11.08-.399.103-.803.134-1.207.03-.486-.124-.773-.443-.857-.928-.111-.646.015-1.243.446-1.754.275-.325.633-.485 1.066-.433zm-5.86.031c.498.057.789.462.725.955-.086.666-.182 1.331-.28 1.996-.006.046-.06.12-.094.123-.196.012-.392.006-.597.006v-.213c-.193.086-.378.201-.58.25-.504.123-.894-.166-.95-.675-.081-.748.38-1.252 1.203-1.306.165-.01.331-.001.494-.001.097-.292.007-.45-.288-.45-.335 0-.67.041-1.015.065l.052-.31c.058-.337.055-.358.396-.404.308-.042.628-.07.934-.036zm12.882-.01c.49.095.781.482.715.973-.093.696-.196 1.391-.297 2.1h-.667v-.25c-.069.053-.125.098-.183.14-.304.218-.733.254-1.011.076-.34-.218-.379-.558-.336-.91.073-.588.517-.948 1.192-.985.166-.01.332-.002.506-.002.072-.325-.002-.449-.31-.451-.324-.003-.648.04-.994.065.027-.166.054-.367.094-.565.007-.035.065-.071.107-.084.386-.124.779-.185 1.184-.107zm-8.83-.396l-.062.432.377.018c-.03.24-.06.467-.092.71h-.41l-.144.835-.07.434c-.045.265.044.363.317.35l.151-.013c-.028.2-.05.391-.084.58-.005.034-.048.082-.079.086-.23.027-.465.08-.691.056-.275-.028-.444-.25-.432-.552.013-.34.06-.68.113-1.017.1-.638.216-1.274.326-1.919h.78zm-1.24.432l-.096.667c-.166-.008-.324-.016-.482-.021-.292-.01-.445.047-.47.194-.039.24.165.294.323.36.43.179.7.477.557 1.167-.07.331-.29.537-.613.62-.457.116-.915.07-1.392-.022l.097-.646c.275.025.535.053.796.07.077.004.162-.014.233-.044.171-.074.203-.27.058-.386-.104-.083-.23-.142-.348-.205-.434-.234-.6-.554-.518-1.01.08-.448.355-.704.832-.781.339-.055.672-.027 1.023.037zm15.307-.68l-.178 1.093c-.134.813-.272 1.626-.4 2.441-.019.122-.066.15-.178.147-.196-.007-.393-.002-.602-.002v-.226c-.133.073-.25.155-.379.204-.515.196-1.026-.04-1.21-.583-.253-.742-.108-1.432.39-2.029.452-.542 1.004-.548 1.6-.037l.17-1.007h.787zm-9.399.655l-.285.887c-.257.004-.375.065-.449.336-.112.412-.185.833-.27 1.251-.04.191-.067.384-.102.589h-.816c.062-.391.123-.774.186-1.157.095-.578.195-1.156.286-1.735.016-.105.049-.149.16-.144.197.008.393.002.604.002l-.055.397c.214-.236.395-.482.741-.426zm6.705 0l-.284.886c-.264.009-.378.068-.454.35-.11.406-.182.822-.265 1.234-.04.197-.07.395-.103.59h-.818l.498-3.019h.739l-.052.384c.213-.234.392-.48.739-.425zm-16.908-.661l-.621 3.686h-.808c.14-.864.277-1.722.415-2.58l-.034-.01c-.029.072-.06.143-.086.215-.271.74-.546 1.479-.808 2.222-.048.136-.113.182-.25.168-.11-.01-.22-.002-.356-.002l-.072-2.645-.03-.008-.46 2.641h-.758l.63-3.674h1.175v2.144l.065.006.418-1.207c.096-.277.187-.556.29-.83.02-.05.082-.12.127-.12.375-.01.75-.006 1.163-.006zm.639 2.52c-.187.127-.246.403-.12.563.121.153.39.147.558-.02.174-.172.239-.388.241-.636-.284-.049-.523-.013-.68.093zm12.882-.006c-.15.094-.22.24-.178.406.023.093.1.206.182.243.155.069.313.015.434-.11.166-.173.222-.386.238-.636-.249-.033-.473-.031-.676.097zm4.22-1.068c-.1.074-.185.181-.242.291-.132.256-.16.534-.12.818.027.185.094.345.293.405.193.058.395-.02.532-.204.168-.224.23-.481.24-.758l-.028-.216c-.005-.036-.012-.072-.022-.106-.086-.302-.399-.416-.653-.23zm-10.532-.14c-.292-.015-.5.187-.542.552.27 0 .526.003.783-.003.036-.001.093-.038.104-.07.07-.218-.113-.468-.345-.48zm2.064-4.513c.593.746 1.063 1.59 1.385 2.503l-.902.419c-.283-.837-.7-1.614-1.238-2.297.231-.23.492-.429.755-.625z"/>
                    </g>
                </g>
            </g>
        </g>
    </g>
</svg>
