<svg xmlns="http://www.w3.org/2000/svg" width="42" height="26" viewBox="0 0 42 26">
    <g fill="none" fill-rule="evenodd">
        <g>
            <g>
                <g>
                    <g transform="translate(-216 -215) translate(0 194) translate(45 21) translate(171)">
                        <rect width="42" height="26" fill="#0B0C0D" rx="2"/>
                        <path fill="#FFF" d="M32.202 9.186l2.271 2.521 2.349-2.52h2.208L35.632 13l3.335 3.814h-2.239l-2.286-2.47-2.334 2.47H24.67V9.186h7.532zm-23.183 0l3.179 7.172V9.186h3.087l2.402 5.187 2.293-5.187h2.98v7.62h-1.824v-5.903s-2.51 5.885-2.636 5.903c-.127.017-1.752 0-1.752 0l-2.672-5.956v5.964h-3.793l-.722-1.636H5.625l-.632 1.636-2.023-.008 3.323-7.62h2.726zm22.15 1.56h-4.651v1.427h4.087s.094 1.582 0 1.582h-4.087v1.55h4.557l2.208-2.279-2.114-2.28zm-23.543-.16l-1.263 2.978h2.525l-1.262-2.979z"/>
                    </g>
                </g>
            </g>
        </g>
    </g>
</svg>
