<svg xmlns="http://www.w3.org/2000/svg" width="42" height="26" viewBox="0 0 42 26">
    <g fill="none" fill-rule="evenodd">
        <g>
            <g>
                <g>
                    <g transform="translate(-159 -215) translate(0 194) translate(45 21) translate(114)">
                        <rect width="42" height="26" fill="#0B0C0D" rx="2"/>
                        <path fill="#FFF" d="M28.548 9.933c.32.006.64.003.98.003-.02.05-.034.089-.05.126-.704 1.656-1.408 3.31-2.11 4.967-.033.079-.074.106-.157.101-.114-.007-.23.004-.343-.005-.04-.003-.099-.035-.113-.07-.71-1.686-1.414-3.375-2.12-5.064-.004-.01-.003-.022-.007-.055.35 0 .688-.003 1.027.004.032.001.075.06.091.101.353.872.702 1.745 1.052 2.618l.268.663c.024-.053.042-.09.057-.126.428-1.053.856-2.106 1.281-3.16.029-.07.06-.104.144-.103zm-14.026.447c.012.01.021.022.04.042l-.52.672c-.19-.201-.392-.364-.666-.398-.275-.035-.531.01-.735.212-.22.218-.195.543.068.704.177.109.376.18.565.268.29.134.588.251.865.407.4.226.58.59.598 1.042.024.599-.158 1.105-.66 1.467-.377.273-.812.35-1.27.323-.699-.04-1.212-.384-1.583-.935l.6-.636c.125.143.225.287.353.398.287.245.629.326.998.235.374-.092.6-.452.52-.805-.04-.184-.148-.324-.314-.406-.186-.092-.383-.164-.576-.245l-.416-.17c-.069-.029-.137-.06-.204-.092-.644-.317-.841-.87-.658-1.56.153-.577.686-.981 1.343-1.039.62-.055 1.172.122 1.652.516zm4.393-.284c.035.017.081.06.082.093.006.36.004.719.004 1.092-.161-.12-.298-.24-.452-.332-.594-.358-1.357-.274-1.893.198-.8.705-.762 2.081.073 2.719.627.478 1.5.454 2.099-.06l.173-.148v.18c0 .298-.002.595.001.893 0 .063-.02.097-.078.125-1.22.577-2.716.183-3.443-.928-1.002-1.535-.21-3.633 1.715-4.045.595-.126 1.172-.063 1.719.213zm14.594-.16c.565.005 1.13 0 1.695.018.198.007.4.054.59.116.643.208 1.001.757.958 1.428-.024.383-.122.732-.412 1.006-.18.17-.395.271-.63.338l-.116.032L37.199 15h-.675c-.15 0-.3-.005-.45.002-.082.004-.128-.027-.172-.093l-1.252-1.854c-.043-.063-.083-.116-.184-.076v2.013h-.999V9.946c.02-.005.03-.01.042-.01zm-26.584.02c.902.061 1.658.424 2.117 1.229.904 1.584-.082 3.564-1.87 3.774-.448.052-.906.032-1.36.041-.209.005-.418.001-.639.001V9.95c.02-.005.038-.014.057-.013.565.004 1.132-.019 1.695.02zm3.904-.01v5.049h-.985v-5.05h.985zm21.968-.005v.854h-1.81v1.12h1.739v.862h-1.74v1.36H32.8v.854h-2.814V9.94h2.81zm-10.703.1c1.426-.009 2.538 1.1 2.515 2.432.023 1.347-1.097 2.447-2.516 2.445-1.428-.002-2.525-1.056-2.517-2.474.008-1.339 1.119-2.394 2.518-2.403zm-15.917.762v3.33c.189 0 .367.01.543-.002.394-.025.765-.118 1.07-.387.704-.617.743-1.79.087-2.461-.474-.484-1.078-.495-1.7-.48zm28.29-.059v1.524c.313 0 .622.02.905-.135.26-.143.352-.378.349-.66-.003-.271-.107-.489-.359-.616-.283-.143-.587-.123-.895-.113z"/>
                    </g>
                </g>
            </g>
        </g>
    </g>
</svg>
