<svg xmlns="http://www.w3.org/2000/svg" width="38" height="26" viewBox="0 0 38 26">
    <g fill="none" fill-rule="evenodd">
        <g>
            <g>
                <g>
                    <g transform="translate(-273 -215) translate(0 194) translate(45 21) translate(228)">
                        <rect width="38" height="26" fill="#0B0C0D" rx="2"/>
                        <path fill="#FFF" d="M9.21 2.6c1.47-.002 2.939.007 4.407.01.087 0 .144 0 .144.131-.003 5.752 0 11.504-.006 17.256 0 .981-.357 1.809-1.012 2.476-.606.618-1.334.919-2.162.922-1.498.006-2.997.004-4.496.005h-.139v-7.292c.189.045.375.09.563.131.618.134 1.24.237 1.87.26.54.018 1.081.027 1.62-.003.668-.037 1.322-.177 1.923-.522.77-.443 1.183-1.143 1.199-2.088.022-1.37.013-2.741.018-4.112 0-.072-.006-.122-.095-.122-.865.004-1.73.004-2.595.005-.017 0-.035.004-.067.008v.17c0 1.29.003 2.58-.002 3.869-.002.5-.148.943-.509 1.277-.305.283-.67.398-1.063.412-.886.033-1.717-.217-2.522-.596-.085-.04-.167-.09-.255-.123-.077-.03-.093-.082-.093-.165.001-2.803-.001-5.606.002-8.409.002-1.683 1.013-3.06 2.517-3.42.245-.059.502-.079.754-.08zm13.359 0c.11 0 .133.038.133.151-.002 5.696-.002 11.391-.002 17.087 0 1.009-.308 1.885-.976 2.592-.524.554-1.154.874-1.883.949-.143.015-.289.02-.433.02l-2.192.001h-2.329v-7.979c.1.08.186.154.278.22.548.399 1.16.61 1.801.738.88.175 1.768.186 2.655.117.737-.057 1.463-.2 2.19-.392v-1.459c-.03.01-.057.017-.08.03-.6.322-1.224.561-1.886.665-.65.102-1.297.122-1.92-.155-.72-.319-1.113-.917-1.22-1.748-.054-.427-.04-.852.079-1.266.245-.86.813-1.322 1.594-1.496.737-.165 1.466-.066 2.177.165.389.125.761.314 1.14.475.037.015.072.035.116.057.003-.038.007-.061.007-.085l.001-1.28c0-.07-.012-.106-.085-.125-1.1-.281-2.211-.441-3.342-.404-.82.026-1.63.125-2.406.438-.393.158-.758.372-1.095.675-.005-.045-.01-.074-.01-.103 0-1.468-.006-2.935.001-4.403.008-1.668 1.019-3.039 2.507-3.397.237-.057.486-.08.73-.08 1.483-.008 2.966-.004 4.45-.008zm8.925.008c.145 0 .145.001.145.165 0 5.698-.007 11.397.004 17.096.004 1.607-.934 2.9-2.15 3.346-.324.119-.657.182-.997.183l-2.274.002h-2.394c-.002-.055-.006-.098-.006-.142 0-2.257.001-4.515-.002-6.773 0-.118.03-.15.137-.149 1.554.006 3.107.007 4.66.01.398 0 .789-.038 1.158-.212.455-.214.797-.55.943-1.083.176-.643-.034-1.294-.54-1.689-.335-.262-.716-.385-1.12-.433-.026-.003-.05-.006-.078-.029.1-.027.201-.05.3-.084.51-.176.908-.5 1.06-1.083.206-.787-.098-1.565-.936-1.9-.344-.138-.702-.175-1.064-.175h-4.512c-.002-.052-.006-.096-.006-.14 0-1.138-.002-2.277 0-3.416.005-1.68 1.015-3.06 2.516-3.42.245-.059.502-.08.753-.08 1.468-.005 2.936.003 4.403.006zM27.218 13.43c.399.002.716.257.815.644.152.596-.208 1.149-.785 1.166l-.607.01-1.214-.006c-.01 0-.021-.006-.041-.012v-1.794c.032-.003.06-.009.089-.009.581 0 1.162-.003 1.743 0zm-.137-2.714c.368.005.642.23.737.585.143.537-.184 1.055-.695 1.069l-.554.008-1.11-.002c-.02 0-.042-.006-.073-.01v-1.64c.031-.004.06-.012.088-.012.536 0 1.071-.004 1.607.002z"/>
                    </g>
                </g>
            </g>
        </g>
    </g>
</svg>
