<svg xmlns="http://www.w3.org/2000/svg" width="42" height="26" viewBox="0 0 42 26">
    <g fill="none" fill-rule="evenodd">
        <g>
            <g>
                <g transform="translate(-45 -215) translate(0 194) translate(45 21)">
                    <rect width="42" height="26" fill="#0B0C0D" rx="2"/>
                    <path fill="#FFF" d="M26.052 8.227l.542.085c.09.015.18.032.269.05.263.057.523.135.783.206.063.018.123.046.197.074l-.416 1.924c-.318-.099-.62-.212-.934-.287-.563-.136-1.137-.194-1.704-.043-.205.055-.412.17-.572.308-.272.235-.273.579-.01.824.179.167.389.307.6.431.424.248.868.46 1.285.717.56.344 1.027.784 1.214 1.44.272.953-.025 2.223-1.096 2.988-.616.44-1.314.672-2.056.766-1.168.148-2.314.035-3.43-.345-.062-.02-.122-.048-.2-.08l.433-2.015c.095.04.176.073.254.11.691.324 1.42.48 2.182.47.35-.003.693-.057 1.01-.222.576-.302.652-.888.144-1.286-.249-.196-.534-.349-.817-.495-.472-.243-.938-.489-1.347-.83-1.17-.973-1.02-2.333-.388-3.247.521-.753 1.286-1.15 2.156-1.368.277-.07.565-.095.848-.143.042-.007.082-.02.124-.032h.929zm-5.2.177l-.188.891c-.584 2.705-1.17 5.409-1.748 8.115-.037.173-.099.223-.277.22-.658-.012-1.316-.004-1.974-.004h-.211l1.993-9.222h2.404zM6.375 8.391c1.266.007 2.532.004 3.798.004.63 0 1.06.347 1.177.96.325 1.691.645 3.384.966 5.077.012.059.026.117.074.187l2.484-6.215h2.526c-.046.115-.084.215-.126.315-1.234 2.919-2.47 5.838-3.702 8.758-.047.11-.104.153-.23.152-.746-.006-1.492-.005-2.239 0-.112 0-.16-.027-.19-.143-.623-2.404-1.257-4.805-1.875-7.21-.11-.43-.33-.729-.745-.912-.684-.302-1.396-.512-2.123-.68-.032-.007-.062-.02-.094-.03v-.066c.023-.181.138-.198.299-.197zm27.602.007l1.944 9.22h-2.22c-.07-.329-.143-.658-.211-.987-.079-.388-.077-.388-.482-.388-.846 0-1.691.002-2.537-.002-.118-.001-.176.033-.214.146-.127.373-.264.743-.405 1.11-.02.052-.09.12-.139.121-.8.008-1.602.005-2.42.005.02-.057.033-.103.052-.147 1.178-2.787 2.356-5.574 3.536-8.361.2-.473.57-.717 1.082-.717h2.014zm-1.723 2.542l-1.25 3.42h2.006l-.719-3.415-.037-.005z"/>
                </g>
            </g>
        </g>
    </g>
</svg>
